<svg width="24" height="24" fill="none"><g clip-path="url(#a)"><path fill-rule="evenodd" clip-rule="evenodd" d="M21.75 0H2.25A2.257 2.257 0 0 0 0 2.25v19.5A2.257 2.257 0 0 0 2.25 24h19.5A2.257 2.257 0 0 0 24 21.75V2.25A2.257 2.257 0 0 0 21.75 0Zm-5.334 7.673a3.46 3.46 0 0 1-1.573-2.895H12.36l-.004 9.952a2.088 2.088 0 0 1-2.083 2.009 2.088 2.088 0 0 1-2.088-2.087 2.09 2.09 0 0 1 2.088-2.088c.214 0 .42.036.615.096v-2.535a4.535 4.535 0 0 0-.615-.044 4.567 4.567 0 0 0-2.62 8.313 4.543 4.543 0 0 0 2.62.828c2.52 0 4.57-2.05 4.57-4.57V9.605a5.907 5.907 0 0 0 3.455 1.11V8.234c-.693 0-1.34-.206-1.881-.56Z" fill="currentColor"></path></g><defs><clipPath id="a"><path fill="#fff" d="M0 0h24v24H0z"></path></clipPath></defs></svg>